<!--
Diagram(
Choice(0, 
Terminal('let'),
Terminal('const')), 
NonTerminal("identifier"),
Optional(Sequence(Terminal(':'), NonTerminal('identifier'))),
Terminal('='),
NonTerminal("expression"));
-->
<svg class="railroad-diagram" width="656" height="101" viewBox="0 0 656 101" xmlns="http://www.w3.org/2000/svg" xmlns:xlink="http://www.w3.org/1999/xlink">
<g transform="translate(.5 .5)">
<g>
<path d="M20 30v20m10 -20v20m-10 -10h20"></path>
</g>
<g>
<path d="M40 40h0"></path>
<path d="M140 40h0"></path>
<path d="M40 40h20"></path>
<g class="terminal ">
<path d="M60 40h8"></path>
<path d="M112 40h8"></path>
<rect x="68" y="29" width="44" height="22" rx="10" ry="10"></rect>
<text x="90" y="44">let</text>
</g>
<path d="M120 40h20"></path>
<path d="M40 40a10 10 0 0 1 10 10v10a10 10 0 0 0 10 10"></path>
<g class="terminal ">
<path d="M60 70h0"></path>
<path d="M120 70h0"></path>
<rect x="60" y="59" width="60" height="22" rx="10" ry="10"></rect>
<text x="90" y="74">const</text>
</g>
<path d="M120 70a10 10 0 0 0 10 -10v-10a10 10 0 0 1 10 -10"></path>
</g>
<path d="M140 40h10"></path>
<g class="non-terminal ">
<path d="M150 40h0"></path>
<path d="M250 40h0"></path>
<rect x="150" y="29" width="100" height="22"></rect>
<text x="200" y="44">identifier</text>
</g>
<path d="M250 40h10"></path>
<g>
<path d="M260 40h0"></path>
<path d="M448 40h0"></path>
<path d="M260 40a10 10 0 0 0 10 -10v0a10 10 0 0 1 10 -10"></path>
<g>
<path d="M280 20h148"></path>
</g>
<path d="M428 20a10 10 0 0 1 10 10v0a10 10 0 0 0 10 10"></path>
<path d="M260 40h20"></path>
<g>
<path d="M280 40h0"></path>
<path d="M428 40h0"></path>
<g class="terminal ">
<path d="M280 40h0"></path>
<path d="M308 40h0"></path>
<rect x="280" y="29" width="28" height="22" rx="10" ry="10"></rect>
<text x="294" y="44">:</text>
</g>
<path d="M308 40h10"></path>
<path d="M318 40h10"></path>
<g class="non-terminal ">
<path d="M328 40h0"></path>
<path d="M428 40h0"></path>
<rect x="328" y="29" width="100" height="22"></rect>
<text x="378" y="44">identifier</text>
</g>
</g>
<path d="M428 40h20"></path>
</g>
<path d="M448 40h10"></path>
<g class="terminal ">
<path d="M458 40h0"></path>
<path d="M486 40h0"></path>
<rect x="458" y="29" width="28" height="22" rx="10" ry="10"></rect>
<text x="472" y="44">=</text>
</g>
<path d="M486 40h10"></path>
<path d="M496 40h10"></path>
<g class="non-terminal ">
<path d="M506 40h0"></path>
<path d="M606 40h0"></path>
<rect x="506" y="29" width="100" height="22"></rect>
<text x="556" y="44">expression</text>
</g>
<path d="M606 40h10"></path>
<path d="M 616 40 h 20 m -10 -10 v 20 m 10 -20 v 20"></path>
</g>
<style>
	svg {
		background-color: hsl(30,20%,95%);
	}
	path {
		stroke-width: 3;
		stroke: black;
		fill: rgba(0,0,0,0);
	}
	text {
		font: bold 14px monospace;
		text-anchor: middle;
		white-space: pre;
	}
	text.diagram-text {
		font-size: 12px;
	}
	text.diagram-arrow {
		font-size: 16px;
	}
	text.label {
		text-anchor: start;
	}
	text.comment {
		font: italic 12px monospace;
	}
	g.non-terminal text {
		/&#42;font-style: italic;&#42;/
	}
	rect {
		stroke-width: 3;
		stroke: black;
		fill: hsl(120,100%,90%);
	}
	rect.group-box {
		stroke: gray;
		stroke-dasharray: 10 5;
		fill: none;
	}
	path.diagram-text {
		stroke-width: 3;
		stroke: black;
		fill: white;
		cursor: help;
	}
	g.diagram-text:hover path.diagram-text {
		fill: #eee;
	}</style>
</svg>
